<svg xmlns="http://www.w3.org/2000/svg" xmlns:xlink="http://www.w3.org/1999/xlink" height="200" width="400"><polygon points="0,200 0,100 1,101 2,102 3,103 4,102 5,103 6,104 7,103 8,104 9,103 10,102 11,103 12,102 13,103 14,104 15,105 16,104 17,103 18,104 19,105 20,104 21,103 22,102 23,101 24,100 25,101 26,102 27,103 28,104 29,105 30,104 31,103 32,104 33,103 34,102 35,101 36,102 37,103 38,104 39,105 40,106 41,107 42,108 43,109 44,110 45,111 46,112 47,113 48,112 49,113 50,112 51,113 52,114 53,113 54,114 55,113 56,114 57,115 58,114 59,115 60,116 61,117 62,118 63,117 64,118 65,119 66,120 67,119 68,118 69,119 70,118 71,117 72,116 73,115 74,114 75,115 76,116 77,115 78,114 79,113 80,114 81,115 82,114 83,115 84,116 85,115 86,114 87,113 88,112 89,113 90,112 91,111 92,112 93,113 94,112 95,111 96,112 97,111 98,112 99,113 100,114 101,113 102,112 103,111 104,112 105,113 106,112 107,113 108,114 109,115 110,114 111,115 112,114 113,115 114,114 115,115 116,114 117,113 118,112 119,113 120,112 121,111 122,112 123,111 124,112 125,111 126,110 127,111 128,110 129,109 130,108 131,107 132,106 133,107 134,106 135,107 136,108 137,107 138,108 139,107 140,108 141,107 142,108 143,107 144,106 145,107 146,108 147,109 148,110 149,111 150,112 151,111 152,110 153,109 154,108 155,107 156,108 157,107 158,108 159,109 160,108 161,107 162,108 163,107 164,106 165,105 166,106 167,105 168,104 169,105 170,106 171,105 172,104 173,105 174,104 175,105 176,104 177,103 178,104 179,105 180,104 181,105 182,104 183,103 184,102 185,103 186,102 187,101 188,102 189,101 190,102 191,103 192,104 193,105 194,106 195,107 196,108 197,109 198,110 199,109 200,108 201,109 202,108 203,109 204,108 205,107 206,106 207,107 208,108 209,109 210,108 211,109 212,110 213,109 214,108 215,107 216,106 217,105 218,106 219,105 220,106 221,107 222,108 223,107 224,106 225,105 226,104 227,105 228,104 229,105 230,104 231,105 232,106 233,105 234,106 235,105 236,106 237,107 238,108 239,107 240,106 241,107 242,108 243,107 244,108 245,109 246,110 247,109 248,110 249,109 250,110 251,109 252,108 253,109 254,108 255,107 256,106 257,105 258,104 259,105 260,104 261,103 262,104 263,105 264,104 265,105 266,106 267,105 268,104 269,103 270,102 271,103 272,104 273,105 274,106 275,105 276,106 277,107 278,108 279,109 280,108 281,109 282,110 283,109 284,108 285,107 286,106 287,107 288,108 289,107 290,108 291,107 292,108 293,109 294,110 295,111 296,110 297,109 298,110 299,111 300,110 301,111 302,112 303,113 304,112 305,111 306,110 307,109 308,108 309,107 310,108 311,109 312,110 313,111 314,110 315,109 316,108 317,107 318,108 319,109 320,108 321,107 322,106 323,105 324,106 325,107 326,106 327,107 328,108 329,109 330,110 331,109 332,110 333,111 334,110 335,109 336,108 337,109 338,108 339,107 340,106 341,107 342,108 343,107 344,106 345,107 346,106 347,107 348,108 349,107 350,106 351,107 352,108 353,109 354,108 355,109 356,110 357,109 358,108 359,109 360,108 361,107 362,108 363,109 364,110 365,111 366,112 367,111 368,112 369,111 370,110 371,109 372,110 373,109 374,110 375,111 376,110 377,109 378,108 379,107 380,108 381,109 382,110 383,109 384,108 385,109 386,110 387,109 388,108 389,107 390,106 391,107 392,106 393,107 394,106 395,105 396,106 397,107 398,106 399,105 400,200 " style="fill:rgb(3,191,118);stroke:rgb(0,91,18)"></polygon><polygon points="0,200 0,100 1,101 2,102 3,103 4,104 5,103 6,102 7,101 8,102 9,101 10,102 11,103 12,102 13,101 14,100 15,99 16,98 17,97 18,96 19,97 20,98 21,99 22,98 23,97 24,96 25,95 26,94 27,95 28,96 29,95 30,96 31,97 32,96 33,97 34,96 35,97 36,96 37,95 38,96 39,95 40,94 41,93 42,94 43,95 44,94 45,93 46,94 47,93 48,94 49,95 50,96 51,97 52,98 53,99 54,98 55,97 56,96 57,95 58,94 59,95 60,96 61,97 62,96 63,95 64,94 65,93 66,94 67,95 68,94 69,93 70,92 71,91 72,90 73,89 74,88 75,89 76,88 77,87 78,88 79,89 80,90 81,89 82,90 83,91 84,90 85,89 86,90 87,91 88,92 89,93 90,94 91,93 92,92 93,93 94,94 95,95 96,96 97,95 98,94 99,93 100,92 101,93 102,92 103,91 104,92 105,93 106,92 107,93 108,92 109,91 110,90 111,91 112,92 113,93 114,92 115,93 116,92 117,93 118,94 119,95 120,96 121,95 122,94 123,95 124,96 125,97 126,98 127,99 128,100 129,99 130,98 131,97 132,98 133,97 134,98 135,97 136,96 137,97 138,98 139,99 140,98 141,97 142,98 143,97 144,96 145,97 146,98 147,99 148,98 149,99 150,100 151,99 152,98 153,97 154,96 155,95 156,96 157,97 158,96 159,95 160,96 161,95 162,96 163,95 164,96 165,97 166,98 167,99 168,98 169,99 170,98 171,99 172,98 173,97 174,96 175,97 176,96 177,97 178,98 179,97 180,98 181,97 182,96 183,97 184,96 185,97 186,98 187,99 188,98 189,99 190,98 191,97 192,98 193,97 194,98 195,99 196,100 197,99 198,100 199,101 200,102 201,101 202,102 203,103 204,102 205,101 206,102 207,103 208,104 209,103 210,102 211,103 212,104 213,105 214,104 215,105 216,104 217,105 218,106 219,107 220,106 221,107 222,106 223,105 224,106 225,107 226,108 227,109 228,110 229,109 230,108 231,107 232,108 233,107 234,106 235,107 236,108 237,109 238,110 239,109 240,108 241,109 242,108 243,107 244,106 245,107 246,106 247,105 248,106 249,107 250,108 251,109 252,108 253,109 254,108 255,109 256,110 257,109 258,108 259,107 260,108 261,107 262,106 263,107 264,108 265,109 266,110 267,109 268,110 269,111 270,112 271,113 272,112 273,113 274,112 275,113 276,114 277,113 278,114 279,113 280,114 281,113 282,112 283,111 284,112 285,113 286,112 287,113 288,114 289,113 290,112 291,111 292,110 293,109 294,110 295,111 296,110 297,109 298,108 299,109 300,110 301,109 302,110 303,111 304,112 305,113 306,112 307,113 308,112 309,111 310,112 311,111 312,110 313,109 314,108 315,107 316,108 317,107 318,106 319,105 320,106 321,107 322,106 323,105 324,106 325,105 326,104 327,103 328,102 329,103 330,104 331,103 332,104 333,105 334,106 335,105 336,106 337,107 338,108 339,109 340,110 341,111 342,110 343,109 344,110 345,111 346,112 347,113 348,112 349,111 350,110 351,111 352,110 353,111 354,112 355,113 356,112 357,113 358,112 359,111 360,112 361,111 362,112 363,113 364,114 365,115 366,116 367,115 368,116 369,117 370,116 371,115 372,114 373,113 374,112 375,111 376,112 377,111 378,110 379,111 380,112 381,111 382,110 383,111 384,110 385,109 386,110 387,109 388,110 389,109 390,110 391,109 392,108 393,109 394,108 395,109 396,110 397,109 398,110 399,111 400,200 " style="fill:rgb(48,50,11);stroke:rgb(0,0,0)"></polygon><polygon points="0,200 0,100 1,101 2,100 3,99 4,98 5,97 6,96 7,95 8,96 9,97 10,98 11,99 12,98 13,97 14,98 15,97 16,98 17,97 18,98 19,99 20,100 21,101 22,100 23,101 24,102 25,103 26,102 27,103 28,102 29,101 30,102 31,101 32,102 33,101 34,102 35,103 36,102 37,103 38,104 39,105 40,104 41,103 42,104 43,103 44,102 45,103 46,104 47,103 48,102 49,103 50,102 51,103 52,104 53,103 54,104 55,105 56,106 57,107 58,106 59,105 60,104 61,105 62,104 63,105 64,106 65,105 66,104 67,105 68,104 69,103 70,104 71,105 72,104 73,103 74,102 75,103 76,102 77,103 78,102 79,101 80,100 81,99 82,98 83,97 84,98 85,99 86,100 87,99 88,100 89,99 90,100 91,99 92,100 93,99 94,100 95,99 96,100 97,101 98,102 99,103 100,104 101,105 102,106 103,107 104,106 105,105 106,106 107,105 108,106 109,105 110,106 111,107 112,108 113,107 114,106 115,105 116,106 117,105 118,104 119,103 120,102 121,101 122,102 123,103 124,102 125,101 126,102 127,103 128,102 129,101 130,100 131,99 132,98 133,97 134,96 135,95 136,94 137,95 138,94 139,93 140,94 141,93 142,92 143,93 144,92 145,93 146,92 147,93 148,94 149,95 150,96 151,97 152,98 153,99 154,100 155,99 156,98 157,99 158,98 159,97 160,96 161,95 162,96 163,95 164,96 165,97 166,96 167,95 168,94 169,95 170,96 171,97 172,96 173,95 174,96 175,97 176,96 177,97 178,96 179,95 180,96 181,97 182,96 183,95 184,94 185,93 186,94 187,93 188,94 189,95 190,96 191,95 192,96 193,97 194,96 195,97 196,96 197,95 198,94 199,93 200,92 201,91 202,90 203,89 204,90 205,91 206,92 207,93 208,94 209,95 210,96 211,95 212,96 213,97 214,98 215,97 216,98 217,97 218,98 219,99 220,100 221,101 222,102 223,101 224,100 225,101 226,102 227,103 228,102 229,101 230,100 231,99 232,98 233,99 234,100 235,99 236,100 237,101 238,102 239,103 240,104 241,103 242,104 243,105 244,106 245,107 246,106 247,105 248,106 249,107 250,106 251,105 252,106 253,105 254,104 255,103 256,102 257,103 258,104 259,105 260,106 261,107 262,106 263,105 264,104 265,103 266,102 267,103 268,102 269,103 270,102 271,101 272,100 273,99 274,100 275,101 276,100 277,101 278,102 279,101 280,100 281,99 282,100 283,101 284,102 285,101 286,100 287,99 288,100 289,101 290,100 291,99 292,98 293,99 294,100 295,101 296,102 297,101 298,100 299,101 300,100 301,99 302,98 303,99 304,100 305,101 306,100 307,101 308,100 309,99 310,98 311,97 312,98 313,97 314,96 315,95 316,96 317,95 318,94 319,95 320,96 321,97 322,98 323,97 324,96 325,97 326,96 327,95 328,96 329,95 330,96 331,97 332,96 333,95 334,96 335,97 336,98 337,97 338,96 339,95 340,96 341,95 342,94 343,95 344,96 345,97 346,98 347,97 348,98 349,97 350,98 351,99 352,100 353,101 354,100 355,99 356,100 357,99 358,100 359,101 360,102 361,101 362,100 363,101 364,102 365,103 366,104 367,103 368,104 369,103 370,104 371,103 372,102 373,101 374,102 375,103 376,102 377,103 378,102 379,101 380,102 381,101 382,102 383,103 384,102 385,103 386,104 387,105 388,106 389,105 390,104 391,103 392,104 393,103 394,102 395,103 396,104 397,105 398,106 399,105 400,200 " style="fill:rgb(255,64,227);stroke:rgb(155,0,127)"></polygon><polygon points="0,200 0,100 1,99 2,100 3,99 4,100 5,99 6,98 7,99 8,98 9,99 10,100 11,99 12,98 13,97 14,98 15,97 16,98 17,99 18,98 19,97 20,96 21,97 22,98 23,99 24,100 25,99 26,100 27,99 28,100 29,101 30,102 31,101 32,100 33,101 34,102 35,101 36,102 37,101 38,102 39,101 40,100 41,99 42,98 43,99 44,98 45,99 46,98 47,99 48,98 49,99 50,98 51,97 52,96 53,95 54,94 55,95 56,96 57,97 58,96 59,95 60,94 61,93 62,94 63,95 64,94 65,93 66,92 67,93 68,94 69,95 70,96 71,95 72,94 73,93 74,94 75,93 76,94 77,93 78,92 79,91 80,90 81,89 82,88 83,87 84,86 85,87 86,86 87,87 88,88 89,89 90,90 91,89 92,88 93,87 94,86 95,87 96,88 97,89 98,90 99,91 100,92 101,93 102,92 103,93 104,92 105,91 106,90 107,91 108,90 109,89 110,88 111,87 112,86 113,87 114,86 115,85 116,84 117,85 118,84 119,83 120,82 121,81 122,80 123,79 124,80 125,79 126,78 127,79 128,80 129,79 130,80 131,79 132,80 133,79 134,80 135,81 136,80 137,79 138,78 139,77 140,76 141,77 142,78 143,79 144,80 145,81 146,80 147,81 148,80 149,79 150,80 151,79 152,78 153,77 154,78 155,77 156,76 157,75 158,74 159,73 160,74 161,73 162,72 163,73 164,74 165,75 166,74 167,75 168,76 169,75 170,74 171,75 172,76 173,75 174,76 175,75 176,76 177,77 178,76 179,75 180,74 181,73 182,72 183,73 184,72 185,71 186,72 187,73 188,74 189,75 190,74 191,73 192,72 193,71 194,70 195,71 196,70 197,71 198,72 199,71 200,72 201,71 202,70 203,69 204,70 205,71 206,70 207,71 208,72 209,71 210,72 211,73 212,72 213,73 214,74 215,75 216,76 217,77 218,76 219,75 220,74 221,73 222,72 223,73 224,72 225,73 226,72 227,73 228,72 229,71 230,70 231,69 232,68 233,67 234,66 235,65 236,66 237,65 238,66 239,65 240,64 241,65 242,66 243,65 244,64 245,63 246,62 247,63 248,64 249,65 250,66 251,65 252,66 253,65 254,66 255,65 256,66 257,65 258,64 259,65 260,64 261,63 262,64 263,65 264,66 265,65 266,66 267,65 268,64 269,63 270,62 271,61 272,60 273,59 274,58 275,59 276,60 277,59 278,58 279,57 280,56 281,55 282,54 283,55 284,54 285,53 286,52 287,51 288,50 289,49 290,48 291,49 292,50 293,49 294,48 295,47 296,48 297,49 298,48 299,47 300,46 301,45 302,44 303,43 304,44 305,45 306,46 307,45 308,44 309,45 310,44 311,45 312,46 313,47 314,48 315,49 316,50 317,51 318,50 319,51 320,52 321,51 322,50 323,49 324,50 325,51 326,50 327,49 328,48 329,49 330,50 331,49 332,50 333,49 334,48 335,49 336,50 337,51 338,52 339,53 340,54 341,53 342,52 343,51 344,52 345,53 346,52 347,51 348,52 349,53 350,52 351,53 352,54 353,53 354,52 355,51 356,50 357,51 358,52 359,53 360,52 361,53 362,52 363,53 364,52 365,51 366,52 367,53 368,54 369,53 370,52 371,51 372,52 373,53 374,52 375,53 376,52 377,51 378,52 379,53 380,52 381,53 382,54 383,55 384,56 385,57 386,56 387,55 388,56 389,55 390,54 391,53 392,52 393,53 394,52 395,53 396,54 397,55 398,54 399,53 400,200 " style="fill:rgb(163,47,216);stroke:rgb(63,0,116)"></polygon><polygon points="0,200 0,100 1,99 2,98 3,99 4,100 5,99 6,98 7,97 8,98 9,97 10,96 11,95 12,94 13,95 14,96 15,97 16,96 17,95 18,96 19,97 20,98 21,99 22,100 23,99 24,100 25,101 26,100 27,99 28,98 29,97 30,98 31,97 32,96 33,95 34,96 35,95 36,94 37,93 38,92 39,91 40,90 41,89 42,88 43,89 44,88 45,89 46,88 47,87 48,86 49,87 50,86 51,85 52,84 53,85 54,86 55,85 56,84 57,85 58,84 59,85 60,84 61,83 62,82 63,83 64,82 65,81 66,80 67,81 68,82 69,81 70,82 71,83 72,84 73,85 74,86 75,87 76,88 77,87 78,88 79,89 80,88 81,87 82,86 83,87 84,86 85,87 86,88 87,87 88,86 89,87 90,86 91,85 92,86 93,87 94,86 95,87 96,88 97,89 98,90 99,89 100,90 101,89 102,90 103,89 104,88 105,89 106,88 107,87 108,86 109,87 110,88 111,87 112,86 113,87 114,86 115,85 116,84 117,85 118,86 119,87 120,88 121,89 122,90 123,89 124,90 125,91 126,90 127,91 128,92 129,93 130,94 131,93 132,92 133,91 134,90 135,91 136,92 137,93 138,94 139,93 140,92 141,91 142,90 143,89 144,88 145,87 146,88 147,89 148,88 149,89 150,88 151,87 152,86 153,87 154,86 155,87 156,88 157,87 158,88 159,87 160,86 161,85 162,84 163,83 164,82 165,81 166,82 167,81 168,82 169,83 170,82 171,81 172,82 173,83 174,84 175,85 176,86 177,85 178,84 179,85 180,84 181,85 182,84 183,85 184,84 185,85 186,86 187,87 188,86 189,85 190,86 191,85 192,86 193,87 194,86 195,85 196,84 197,83 198,84 199,85 200,86 201,87 202,88 203,89 204,90 205,91 206,90 207,89 208,90 209,91 210,90 211,89 212,88 213,89 214,88 215,87 216,88 217,89 218,90 219,91 220,90 221,89 222,88 223,89 224,90 225,91 226,90 227,89 228,88 229,89 230,88 231,87 232,86 233,87 234,86 235,87 236,88 237,89 238,90 239,89 240,90 241,89 242,88 243,87 244,86 245,87 246,86 247,85 248,86 249,87 250,86 251,87 252,88 253,89 254,88 255,89 256,88 257,87 258,88 259,89 260,88 261,89 262,88 263,89 264,88 265,89 266,90 267,89 268,88 269,89 270,90 271,91 272,90 273,89 274,88 275,87 276,86 277,85 278,84 279,83 280,84 281,83 282,82 283,81 284,82 285,83 286,82 287,83 288,82 289,81 290,82 291,83 292,82 293,83 294,82 295,83 296,84 297,85 298,86 299,87 300,86 301,87 302,88 303,89 304,88 305,89 306,88 307,89 308,90 309,89 310,88 311,87 312,86 313,87 314,86 315,87 316,88 317,89 318,90 319,89 320,88 321,87 322,88 323,89 324,88 325,87 326,88 327,87 328,88 329,87 330,86 331,87 332,88 333,87 334,86 335,87 336,88 337,89 338,90 339,91 340,92 341,93 342,92 343,91 344,90 345,89 346,90 347,91 348,90 349,89 350,88 351,87 352,88 353,89 354,88 355,87 356,86 357,85 358,86 359,87 360,88 361,87 362,88 363,87 364,86 365,87 366,86 367,85 368,86 369,85 370,84 371,85 372,84 373,83 374,82 375,81 376,82 377,83 378,84 379,85 380,84 381,83 382,84 383,85 384,86 385,87 386,86 387,85 388,86 389,87 390,88 391,89 392,88 393,89 394,90 395,91 396,90 397,89 398,90 399,89 400,200 " style="fill:rgb(63,31,218);stroke:rgb(0,0,118)"></polygon><polygon points="0,200 0,100 1,101 2,100 3,101 4,100 5,99 6,100 7,99 8,98 9,97 10,98 11,97 12,96 13,95 14,96 15,97 16,98 17,99 18,98 19,99 20,98 21,97 22,96 23,95 24,94 25,95 26,96 27,97 28,98 29,97 30,98 31,97 32,96 33,97 34,98 35,99 36,98 37,99 38,100 39,101 40,102 41,103 42,104 43,103 44,102 45,103 46,104 47,105 48,104 49,105 50,104 51,105 52,104 53,103 54,102 55,101 56,102 57,103 58,104 59,105 60,104 61,103 62,102 63,101 64,102 65,101 66,102 67,103 68,102 69,101 70,102 71,103 72,102 73,103 74,104 75,105 76,106 77,107 78,108 79,109 80,108 81,107 82,108 83,107 84,108 85,107 86,108 87,107 88,108 89,109 90,110 91,109 92,110 93,109 94,110 95,109 96,110 97,109 98,110 99,111 100,112 101,113 102,114 103,113 104,114 105,113 106,112 107,111 108,110 109,109 110,108 111,107 112,108 113,107 114,108 115,109 116,108 117,107 118,106 119,105 120,106 121,105 122,106 123,105 124,104 125,105 126,106 127,105 128,106 129,105 130,104 131,105 132,104 133,103 134,102 135,101 136,102 137,101 138,100 139,99 140,100 141,99 142,100 143,99 144,100 145,101 146,100 147,99 148,98 149,99 150,98 151,97 152,98 153,97 154,98 155,99 156,100 157,101 158,100 159,99 160,98 161,99 162,98 163,99 164,100 165,101 166,100 167,99 168,98 169,97 170,96 171,97 172,96 173,95 174,94 175,93 176,94 177,93 178,94 179,95 180,96 181,95 182,96 183,95 184,96 185,97 186,96 187,95 188,94 189,93 190,92 191,93 192,92 193,93 194,92 195,93 196,92 197,93 198,92 199,93 200,94 201,95 202,96 203,97 204,98 205,99 206,100 207,99 208,98 209,97 210,98 211,99 212,98 213,97 214,98 215,97 216,96 217,95 218,96 219,95 220,96 221,97 222,96 223,97 224,96 225,97 226,96 227,97 228,96 229,97 230,98 231,99 232,100 233,101 234,102 235,103 236,102 237,103 238,104 239,103 240,102 241,103 242,104 243,105 244,104 245,105 246,104 247,103 248,104 249,103 250,102 251,103 252,104 253,103 254,102 255,103 256,102 257,103 258,102 259,101 260,100 261,101 262,102 263,103 264,102 265,103 266,102 267,101 268,102 269,101 270,102 271,101 272,102 273,103 274,104 275,105 276,106 277,107 278,108 279,109 280,110 281,111 282,112 283,111 284,112 285,113 286,112 287,111 288,110 289,111 290,112 291,111 292,110 293,111 294,110 295,111 296,110 297,111 298,110 299,109 300,110 301,111 302,112 303,111 304,110 305,109 306,110 307,111 308,112 309,111 310,112 311,113 312,114 313,115 314,116 315,117 316,118 317,117 318,116 319,115 320,114 321,113 322,112 323,111 324,112 325,111 326,112 327,113 328,114 329,115 330,114 331,115 332,114 333,115 334,116 335,115 336,114 337,115 338,114 339,113 340,112 341,113 342,112 343,113 344,112 345,113 346,114 347,113 348,114 349,115 350,114 351,115 352,114 353,115 354,114 355,113 356,114 357,113 358,114 359,113 360,112 361,113 362,114 363,113 364,112 365,111 366,110 367,111 368,112 369,113 370,112 371,113 372,114 373,115 374,116 375,115 376,116 377,115 378,116 379,117 380,116 381,115 382,114 383,113 384,112 385,113 386,114 387,113 388,112 389,111 390,110 391,111 392,110 393,111 394,112 395,113 396,112 397,111 398,112 399,113 400,200 " style="fill:rgb(185,172,206);stroke:rgb(85,72,106)"></polygon><polygon points="0,200 0,100 1,101 2,100 3,99 4,98 5,97 6,96 7,97 8,96 9,95 10,94 11,95 12,94 13,95 14,96 15,97 16,96 17,97 18,98 19,97 20,96 21,95 22,96 23,97 24,96 25,97 26,96 27,97 28,96 29,97 30,98 31,99 32,100 33,99 34,100 35,101 36,102 37,101 38,102 39,101 40,102 41,101 42,102 43,103 44,104 45,105 46,104 47,103 48,102 49,103 50,104 51,103 52,104 53,103 54,102 55,101 56,102 57,103 58,104 59,105 60,106 61,105 62,106 63,107 64,108 65,109 66,108 67,109 68,110 69,111 70,110 71,111 72,112 73,113 74,112 75,113 76,114 77,115 78,116 79,117 80,116 81,115 82,114 83,115 84,116 85,115 86,114 87,113 88,112 89,113 90,114 91,113 92,114 93,113 94,112 95,111 96,112 97,113 98,114 99,115 100,116 101,117 102,118 103,117 104,116 105,117 106,118 107,117 108,118 109,119 110,118 111,119 112,120 113,119 114,120 115,121 116,122 117,123 118,122 119,123 120,124 121,125 122,126 123,127 124,126 125,127 126,126 127,127 128,128 129,127 130,128 131,127 132,126 133,127 134,128 135,129 136,128 137,127 138,126 139,125 140,124 141,125 142,124 143,123 144,124 145,123 146,124 147,123 148,122 149,123 150,122 151,123 152,124 153,125 154,126 155,125 156,126 157,125 158,124 159,125 160,126 161,125 162,126 163,125 164,126 165,125 166,126 167,127 168,126 169,127 170,128 171,129 172,128 173,129 174,130 175,129 176,130 177,131 178,130 179,131 180,132 181,133 182,132 183,133 184,134 185,135 186,136 187,135 188,136 189,135 190,136 191,135 192,134 193,133 194,132 195,133 196,132 197,131 198,132 199,133 200,134 201,135 202,134 203,135 204,136 205,137 206,138 207,137 208,136 209,137 210,136 211,135 212,136 213,135 214,134 215,133 216,134 217,135 218,134 219,135 220,134 221,135 222,136 223,135 224,136 225,135 226,134 227,135 228,136 229,137 230,138 231,139 232,140 233,139 234,140 235,141 236,140 237,141 238,142 239,143 240,142 241,141 242,140 243,141 244,142 245,141 246,140 247,139 248,140 249,141 250,142 251,143 252,142 253,143 254,142 255,143 256,142 257,141 258,142 259,143 260,144 261,143 262,142 263,143 264,144 265,143 266,144 267,143 268,142 269,141 270,140 271,141 272,142 273,143 274,144 275,143 276,144 277,145 278,144 279,143 280,142 281,141 282,140 283,141 284,142 285,143 286,144 287,143 288,144 289,143 290,144 291,143 292,142 293,141 294,142 295,141 296,142 297,141 298,140 299,141 300,142 301,141 302,140 303,141 304,142 305,143 306,144 307,145 308,144 309,145 310,146 311,147 312,146 313,145 314,146 315,145 316,144 317,143 318,142 319,141 320,142 321,141 322,142 323,141 324,142 325,143 326,142 327,143 328,144 329,143 330,144 331,143 332,144 333,145 334,146 335,147 336,148 337,147 338,146 339,145 340,144 341,145 342,146 343,147 344,146 345,147 346,148 347,147 348,146 349,145 350,146 351,145 352,146 353,145 354,144 355,143 356,144 357,143 358,144 359,143 360,142 361,141 362,142 363,143 364,144 365,143 366,142 367,143 368,142 369,141 370,142 371,141 372,142 373,141 374,142 375,141 376,142 377,141 378,142 379,143 380,144 381,145 382,144 383,143 384,144 385,145 386,144 387,143 388,142 389,143 390,144 391,145 392,146 393,145 394,144 395,145 396,146 397,145 398,144 399,143 400,200 " style="fill:rgb(78,206,214);stroke:rgb(0,106,114)"></polygon><polygon points="0,200 0,100 1,99 2,100 3,101 4,100 5,101 6,100 7,101 8,100 9,99 10,98 11,99 12,98 13,99 14,100 15,99 16,98 17,97 18,96 19,97 20,98 21,97 22,96 23,95 24,94 25,93 26,94 27,95 28,96 29,95 30,96 31,97 32,96 33,95 34,94 35,95 36,94 37,93 38,94 39,95 40,94 41,95 42,96 43,95 44,96 45,95 46,96 47,95 48,94 49,95 50,94 51,93 52,94 53,95 54,94 55,95 56,96 57,97 58,96 59,95 60,96 61,97 62,98 63,97 64,96 65,97 66,98 67,99 68,100 69,101 70,100 71,99 72,100 73,99 74,100 75,99 76,100 77,101 78,102 79,101 80,100 81,99 82,98 83,99 84,98 85,97 86,98 87,97 88,96 89,95 90,94 91,95 92,96 93,97 94,96 95,97 96,98 97,99 98,100 99,101 100,102 101,101 102,102 103,103 104,104 105,105 106,106 107,107 108,108 109,107 110,108 111,109 112,108 113,107 114,106 115,107 116,108 117,109 118,108 119,107 120,108 121,109 122,110 123,109 124,108 125,107 126,108 127,107 128,106 129,107 130,106 131,107 132,108 133,107 134,106 135,105 136,106 137,105 138,106 139,105 140,104 141,105 142,106 143,105 144,106 145,105 146,104 147,105 148,106 149,105 150,106 151,107 152,106 153,105 154,106 155,105 156,106 157,105 158,106 159,105 160,106 161,105 162,106 163,105 164,104 165,103 166,102 167,103 168,102 169,103 170,104 171,103 172,102 173,103 174,104 175,103 176,104 177,103 178,102 179,103 180,104 181,103 182,102 183,101 184,102 185,103 186,102 187,101 188,100 189,99 190,98 191,97 192,96 193,95 194,96 195,95 196,94 197,95 198,94 199,95 200,94 201,95 202,96 203,97 204,98 205,99 206,100 207,101 208,100 209,99 210,98 211,99 212,100 213,101 214,100 215,99 216,98 217,97 218,98 219,99 220,98 221,99 222,98 223,97 224,96 225,97 226,96 227,97 228,98 229,97 230,98 231,99 232,100 233,99 234,100 235,101 236,100 237,101 238,100 239,101 240,102 241,103 242,102 243,101 244,102 245,103 246,104 247,105 248,104 249,105 250,106 251,105 252,106 253,107 254,106 255,105 256,106 257,105 258,104 259,103 260,104 261,103 262,104 263,103 264,102 265,101 266,102 267,103 268,104 269,105 270,104 271,103 272,104 273,105 274,106 275,107 276,106 277,107 278,106 279,107 280,108 281,109 282,108 283,107 284,108 285,109 286,110 287,111 288,110 289,109 290,110 291,109 292,110 293,109 294,108 295,109 296,108 297,107 298,108 299,109 300,110 301,109 302,108 303,109 304,108 305,109 306,110 307,109 308,110 309,109 310,108 311,109 312,108 313,109 314,110 315,109 316,110 317,109 318,110 319,111 320,110 321,111 322,110 323,111 324,110 325,109 326,108 327,109 328,110 329,111 330,110 331,109 332,110 333,111 334,110 335,111 336,112 337,113 338,112 339,113 340,112 341,111 342,112 343,113 344,112 345,113 346,112 347,111 348,110 349,109 350,108 351,109 352,110 353,109 354,108 355,107 356,106 357,105 358,104 359,105 360,104 361,105 362,106 363,107 364,106 365,105 366,106 367,105 368,104 369,103 370,104 371,105 372,106 373,105 374,106 375,107 376,108 377,109 378,110 379,111 380,110 381,111 382,112 383,111 384,112 385,113 386,112 387,111 388,110 389,111 390,112 391,113 392,114 393,115 394,114 395,115 396,116 397,117 398,116 399,117 400,200 " style="fill:rgb(255,69,179);stroke:rgb(155,0,79)"></polygon><polygon points="0,200 0,100 1,101 2,100 3,101 4,102 5,103 6,102 7,101 8,102 9,101 10,102 11,103 12,102 13,103 14,102 15,101 16,102 17,101 18,102 19,103 20,102 21,101 22,100 23,101 24,102 25,103 26,104 27,103 28,102 29,101 30,102 31,101 32,102 33,103 34,102 35,101 36,102 37,103 38,104 39,105 40,104 41,103 42,104 43,103 44,104 45,103 46,102 47,101 48,102 49,101 50,102 51,101 52,100 53,99 54,98 55,99 56,98 57,99 58,100 59,99 60,100 61,101 62,102 63,101 64,102 65,103 66,104 67,103 68,104 69,105 70,104 71,103 72,104 73,103 74,102 75,101 76,100 77,99 78,98 79,99 80,98 81,97 82,96 83,97 84,98 85,97 86,98 87,99 88,100 89,101 90,102 91,103 92,104 93,103 94,102 95,101 96,100 97,101 98,100 99,101 100,100 101,101 102,102 103,101 104,102 105,103 106,102 107,101 108,100 109,101 110,100 111,101 112,102 113,101 114,100 115,101 116,100 117,99 118,100 119,101 120,100 121,101 122,102 123,103 124,104 125,103 126,102 127,103 128,104 129,103 130,102 131,101 132,100 133,101 134,102 135,103 136,102 137,101 138,100 139,101 140,102 141,101 142,100 143,101 144,102 145,101 146,102 147,101 148,100 149,99 150,100 151,101 152,102 153,101 154,100 155,101 156,100 157,101 158,100 159,101 160,100 161,101 162,102 163,103 164,102 165,103 166,104 167,103 168,102 169,103 170,104 171,105 172,106 173,105 174,106 175,105 176,104 177,105 178,104 179,105 180,106 181,107 182,106 183,105 184,106 185,105 186,106 187,105 188,104 189,105 190,106 191,105 192,106 193,105 194,106 195,105 196,106 197,107 198,108 199,109 200,108 201,107 202,108 203,107 204,108 205,109 206,108 207,107 208,108 209,109 210,108 211,107 212,108 213,107 214,106 215,107 216,106 217,105 218,104 219,103 220,104 221,105 222,106 223,107 224,108 225,109 226,108 227,109 228,110 229,109 230,110 231,109 232,110 233,111 234,110 235,111 236,110 237,111 238,110 239,111 240,112 241,113 242,114 243,115 244,116 245,117 246,116 247,115 248,116 249,117 250,118 251,119 252,120 253,119 254,118 255,119 256,120 257,121 258,122 259,121 260,120 261,119 262,118 263,117 264,118 265,117 266,116 267,117 268,116 269,117 270,116 271,117 272,116 273,117 274,118 275,117 276,116 277,115 278,114 279,115 280,116 281,117 282,118 283,119 284,120 285,119 286,120 287,119 288,120 289,121 290,122 291,123 292,122 293,121 294,120 295,119 296,120 297,121 298,120 299,119 300,120 301,121 302,122 303,123 304,122 305,123 306,122 307,123 308,122 309,121 310,120 311,121 312,120 313,119 314,120 315,121 316,120 317,119 318,118 319,119 320,120 321,121 322,120 323,121 324,120 325,121 326,120 327,121 328,122 329,123 330,124 331,123 332,122 333,121 334,120 335,119 336,120 337,121 338,122 339,121 340,122 341,121 342,120 343,121 344,120 345,121 346,122 347,121 348,120 349,121 350,122 351,121 352,120 353,121 354,120 355,121 356,122 357,123 358,124 359,125 360,126 361,125 362,126 363,125 364,126 365,127 366,128 367,129 368,128 369,129 370,130 371,129 372,128 373,129 374,128 375,129 376,130 377,129 378,130 379,129 380,128 381,129 382,128 383,129 384,130 385,129 386,128 387,129 388,130 389,129 390,130 391,129 392,128 393,127 394,128 395,129 396,128 397,129 398,130 399,129 400,200 " style="fill:rgb(211,215,151);stroke:rgb(111,115,51)"></polygon><polygon points="0,200 0,100 1,99 2,98 3,97 4,98 5,97 6,98 7,97 8,96 9,95 10,94 11,95 12,96 13,95 14,96 15,97 16,98 17,99 18,98 19,97 20,96 21,97 22,96 23,95 24,96 25,97 26,98 27,97 28,98 29,99 30,98 31,99 32,100 33,101 34,100 35,101 36,100 37,99 38,98 39,99 40,100 41,99 42,98 43,97 44,98 45,99 46,98 47,99 48,98 49,97 50,96 51,97 52,96 53,97 54,98 55,97 56,98 57,97 58,96 59,95 60,96 61,95 62,94 63,95 64,96 65,97 66,96 67,97 68,96 69,95 70,96 71,95 72,96 73,97 74,96 75,95 76,96 77,97 78,98 79,99 80,98 81,97 82,98 83,99 84,100 85,99 86,100 87,101 88,102 89,103 90,104 91,103 92,102 93,103 94,102 95,101 96,100 97,101 98,100 99,99 100,98 101,97 102,96 103,97 104,96 105,95 106,96 107,97 108,98 109,99 110,100 111,101 112,100 113,101 114,102 115,101 116,102 117,101 118,102 119,103 120,104 121,105 122,104 123,105 124,106 125,105 126,104 127,103 128,102 129,101 130,102 131,103 132,104 133,103 134,102 135,103 136,102 137,101 138,102 139,101 140,102 141,103 142,104 143,105 144,106 145,105 146,106 147,105 148,106 149,107 150,108 151,109 152,108 153,109 154,110 155,111 156,112 157,113 158,112 159,111 160,110 161,109 162,110 163,111 164,112 165,113 166,112 167,113 168,112 169,113 170,114 171,113 172,114 173,115 174,116 175,117 176,118 177,119 178,118 179,117 180,116 181,115 182,116 183,115 184,116 185,117 186,118 187,117 188,116 189,115 190,114 191,115 192,114 193,115 194,114 195,113 196,112 197,113 198,112 199,113 200,114 201,115 202,116 203,117 204,118 205,117 206,118 207,119 208,118 209,117 210,116 211,117 212,116 213,115 214,114 215,113 216,112 217,113 218,114 219,115 220,114 221,115 222,114 223,115 224,114 225,113 226,114 227,115 228,116 229,117 230,116 231,117 232,116 233,115 234,116 235,117 236,116 237,117 238,116 239,117 240,118 241,119 242,120 243,121 244,122 245,123 246,124 247,123 248,124 249,123 250,124 251,125 252,124 253,125 254,124 255,123 256,122 257,121 258,122 259,123 260,124 261,123 262,124 263,123 264,124 265,125 266,124 267,125 268,124 269,123 270,124 271,123 272,124 273,123 274,122 275,121 276,122 277,123 278,122 279,123 280,124 281,123 282,124 283,123 284,122 285,121 286,122 287,123 288,122 289,123 290,122 291,123 292,122 293,121 294,122 295,123 296,122 297,123 298,124 299,125 300,126 301,127 302,126 303,125 304,124 305,125 306,126 307,127 308,128 309,129 310,130 311,131 312,132 313,131 314,130 315,129 316,128 317,129 318,130 319,131 320,130 321,131 322,130 323,129 324,128 325,129 326,130 327,129 328,128 329,127 330,128 331,129 332,128 333,129 334,130 335,131 336,130 337,131 338,130 339,131 340,130 341,129 342,128 343,127 344,128 345,129 346,128 347,127 348,126 349,125 350,126 351,125 352,126 353,127 354,126 355,127 356,126 357,125 358,124 359,125 360,126 361,127 362,126 363,127 364,126 365,125 366,126 367,125 368,124 369,123 370,124 371,123 372,122 373,121 374,122 375,121 376,122 377,123 378,122 379,123 380,122 381,123 382,124 383,123 384,124 385,123 386,124 387,123 388,124 389,125 390,124 391,125 392,124 393,123 394,122 395,123 396,124 397,125 398,126 399,125 400,200 " style="fill:rgb(133,44,162);stroke:rgb(33,0,62)"></polygon></svg>